<?xml version="1.0" encoding="UTF-8"?>
<svg id="Capa_1" data-name="Capa 1" xmlns="http://www.w3.org/2000/svg" viewBox="0 0 448.45 573.66">
  <defs>
    <style>
      .cls-1, .cls-2 {
        fill: #5b4475;
      }

      .cls-2 {
        font-family: Calibri-Bold, Calibri;
        font-size: 490px;
        font-weight: 700;
      }
    </style>
  </defs>
  <path class="cls-1" d="m241.09,13.92c-.41-3.42-1.02-6.14-1.83-8.18-.82-2.03-1.83-3.5-3.05-4.39-1.22-.89-2.56-1.34-4.03-1.34H9.52c-1.63,0-3.01.45-4.15,1.34-1.14.9-2.12,2.36-2.93,4.39-.82,2.04-1.43,4.76-1.83,8.18-.41,3.42-.61,7.57-.61,12.45s.2,8.75.61,12.08c.4,3.34,1.01,6.02,1.83,8.06.81,2.04,1.79,3.54,2.93,4.52,1.14.98,2.52,1.46,4.15,1.46h79.1v254.64c0,1.63.53,3.09,1.59,4.39,1.06,1.3,2.81,2.36,5.25,3.17,2.44.82,5.74,1.46,9.89,1.95s9.32.73,15.5.73,11.35-.24,15.5-.73,7.45-1.14,9.89-1.95c2.44-.81,4.19-1.87,5.25-3.17,1.06-1.3,1.59-2.77,1.59-4.39V52.49h79.1c1.46,0,2.81-.49,4.03-1.46s2.24-2.48,3.05-4.52c.81-2.03,1.42-4.72,1.83-8.06.4-3.33.61-7.36.61-12.08s-.21-9.03-.61-12.45Z"/>
  <text class="cls-2" transform="translate(167.99 402.59)"><tspan x="0" y="0">S</tspan></text>
</svg>